# xmcd CD database file
#
# Track frame offsets:
#	150
#	13478
#	27502
#	39394
#	50237
#	61831
#	76912
#	87814
#	99808
#	114525
#	126977
#	140115
#	154815
#	169100
#	181496
#	193930
#	209410
#	221069
#	234341
#	249326
#	260445
#
# Disc length: 3596 seconds
#
# Revision: 0
# Processed by: cddbd v1.4PL0 Copyright (c) Steve Scherf et al.
# Submitted via: CDex 1.40Release
#
DISCID=300e0a15
DTITLE=Jimmie Revard - Hillbilly Swing CD #1
DYEAR=1900
DGENRE=Country
TTITLE0=Ride 'Em Cowboy (1936)
TTITLE1=Holding The Sack (1936)
TTITLE2=Cake Eating Man (1936)
TTITLE3=Triflin' Gal (1936)
TTITLE4=Swing Me (1936)
TTITLE5=A Little Prayer For Me (1936)
TTITLE6=Dirty Dog (1936)
TTITLE7=Fox And Hounds (1936)
TTITLE8=Blues In The Bottle (1936)
TTITLE9=She's All Mine (1936)
TTITLE10=What's The Use (1936)
TTITLE11=Since You Left Me (1936)
TTITLE12=Big String Band (1936)
TTITLE13=She Is My Gal (1936)
TTITLE14=Crafton Blues (1936)
TTITLE15=Oklahoma Blues (1936)
TTITLE16=After Hours Blues (1936)
TTITLE17=Big Daddy Blues (1936)
TTITLE18=Star Kovarna (1936)
TTITLE19=Na Marjanse (1936)
TTITLE20=It Ain't No Good (1936)
EXTD=ID3G: 2
EXTT0=
EXTT1=
EXTT2=
EXTT3=
EXTT4=
EXTT5=
EXTT6=
EXTT7=
EXTT8=
EXTT9=
EXTT10=
EXTT11=
EXTT12=
EXTT13=
EXTT14=
EXTT15=
EXTT16=
EXTT17=
EXTT18=
EXTT19=
EXTT20=
PLAYORDER=
